<mxfile host="Electron" agent="Mozilla/5.0 (Windows NT 10.0; Win64; x64) AppleWebKit/537.36 (KHTML, like Gecko) draw.io/25.0.1 Chrome/128.0.6613.186 Electron/32.2.6 Safari/537.36" version="25.0.1">
  <diagram name="Page-1" id="oMWHzseDJMsNfjr_P1Ng">
    <mxGraphModel dx="1036" dy="606" grid="1" gridSize="10" guides="1" tooltips="1" connect="1" arrows="1" fold="1" page="1" pageScale="1" pageWidth="850" pageHeight="1100" math="0" shadow="0">
      <root>
        <mxCell id="0" />
        <mxCell id="1" parent="0" />
        <mxCell id="UkzVXQFpZRV-EjQfRtY4-4" value="" style="edgeStyle=orthogonalEdgeStyle;rounded=0;orthogonalLoop=1;jettySize=auto;html=1;" edge="1" parent="1" source="UkzVXQFpZRV-EjQfRtY4-1" target="UkzVXQFpZRV-EjQfRtY4-3">
          <mxGeometry relative="1" as="geometry" />
        </mxCell>
        <mxCell id="UkzVXQFpZRV-EjQfRtY4-6" value="" style="edgeStyle=orthogonalEdgeStyle;rounded=0;orthogonalLoop=1;jettySize=auto;html=1;" edge="1" parent="1" source="UkzVXQFpZRV-EjQfRtY4-1" target="UkzVXQFpZRV-EjQfRtY4-5">
          <mxGeometry relative="1" as="geometry" />
        </mxCell>
        <mxCell id="UkzVXQFpZRV-EjQfRtY4-1" value="Neulogovani korisnik" style="shape=umlActor;verticalLabelPosition=bottom;verticalAlign=top;html=1;outlineConnect=0;fontStyle=0" vertex="1" parent="1">
          <mxGeometry x="815" y="162.5" width="30" height="60" as="geometry" />
        </mxCell>
        <mxCell id="UkzVXQFpZRV-EjQfRtY4-3" value="Prikaz knjiga i njihovih recenzija i komentara,&lt;div&gt;&amp;nbsp;kao i njihovo pretraživanje&lt;br&gt;&lt;/div&gt;" style="ellipse;whiteSpace=wrap;html=1;verticalAlign=middle;fontStyle=0;align=center;" vertex="1" parent="1">
          <mxGeometry x="930" y="160" width="285" height="65" as="geometry" />
        </mxCell>
        <mxCell id="UkzVXQFpZRV-EjQfRtY4-5" value="&lt;div&gt;&lt;span style=&quot;background-color: initial;&quot;&gt;Registracija na sistem&lt;/span&gt;&lt;br&gt;&lt;/div&gt;" style="ellipse;whiteSpace=wrap;html=1;verticalAlign=middle;fontStyle=0;" vertex="1" parent="1">
          <mxGeometry x="465" y="165" width="245" height="55" as="geometry" />
        </mxCell>
        <mxCell id="UkzVXQFpZRV-EjQfRtY4-9" value="" style="edgeStyle=orthogonalEdgeStyle;rounded=0;orthogonalLoop=1;jettySize=auto;html=1;exitX=0.75;exitY=0.1;exitDx=0;exitDy=0;exitPerimeter=0;" edge="1" parent="1" source="UkzVXQFpZRV-EjQfRtY4-7">
          <mxGeometry relative="1" as="geometry">
            <mxPoint x="725" y="372.5" as="sourcePoint" />
            <mxPoint x="955" y="342.5" as="targetPoint" />
            <Array as="points">
              <mxPoint x="838" y="372.5" />
              <mxPoint x="955" y="372.5" />
            </Array>
          </mxGeometry>
        </mxCell>
        <mxCell id="UkzVXQFpZRV-EjQfRtY4-11" value="" style="edgeStyle=orthogonalEdgeStyle;rounded=0;orthogonalLoop=1;jettySize=auto;html=1;" edge="1" parent="1" source="UkzVXQFpZRV-EjQfRtY4-7" target="UkzVXQFpZRV-EjQfRtY4-10">
          <mxGeometry relative="1" as="geometry" />
        </mxCell>
        <mxCell id="UkzVXQFpZRV-EjQfRtY4-16" value="" style="edgeStyle=orthogonalEdgeStyle;rounded=0;orthogonalLoop=1;jettySize=auto;html=1;exitX=0.5;exitY=0;exitDx=0;exitDy=0;exitPerimeter=0;" edge="1" parent="1" source="UkzVXQFpZRV-EjQfRtY4-7" target="UkzVXQFpZRV-EjQfRtY4-15">
          <mxGeometry relative="1" as="geometry">
            <mxPoint x="835" y="382.5" as="sourcePoint" />
            <Array as="points">
              <mxPoint x="830" y="382.5" />
              <mxPoint x="765" y="382.5" />
              <mxPoint x="765" y="332.5" />
            </Array>
          </mxGeometry>
        </mxCell>
        <mxCell id="UkzVXQFpZRV-EjQfRtY4-18" value="" style="edgeStyle=orthogonalEdgeStyle;rounded=0;orthogonalLoop=1;jettySize=auto;html=1;" edge="1" parent="1" source="UkzVXQFpZRV-EjQfRtY4-7" target="UkzVXQFpZRV-EjQfRtY4-17">
          <mxGeometry relative="1" as="geometry" />
        </mxCell>
        <mxCell id="UkzVXQFpZRV-EjQfRtY4-7" value="Ulogovani korisnik" style="shape=umlActor;verticalLabelPosition=bottom;verticalAlign=top;html=1;outlineConnect=0;" vertex="1" parent="1">
          <mxGeometry x="815" y="392.5" width="30" height="60" as="geometry" />
        </mxCell>
        <mxCell id="UkzVXQFpZRV-EjQfRtY4-8" value="&lt;div&gt;Prijavljivanje na sistem i povratak šifre&lt;br&gt;&lt;/div&gt;" style="ellipse;whiteSpace=wrap;html=1;verticalAlign=middle;" vertex="1" parent="1">
          <mxGeometry x="945" y="312.5" width="260" height="60" as="geometry" />
        </mxCell>
        <mxCell id="UkzVXQFpZRV-EjQfRtY4-10" value="&lt;span style=&quot;background-color: initial;&quot;&gt;Prikaz i ažuriranje osnovnih&amp;nbsp;&lt;/span&gt;&lt;div&gt;&lt;span style=&quot;background-color: initial;&quot;&gt;podataka o čitaocu&lt;/span&gt;&lt;br&gt;&lt;/div&gt;" style="ellipse;whiteSpace=wrap;html=1;verticalAlign=middle;" vertex="1" parent="1">
          <mxGeometry x="975" y="382.5" width="230" height="80" as="geometry" />
        </mxCell>
        <mxCell id="UkzVXQFpZRV-EjQfRtY4-15" value="&lt;div&gt;&lt;span style=&quot;background-color: initial;&quot;&gt;Recenzija i komentarisanje knjiga&lt;/span&gt;&lt;br&gt;&lt;/div&gt;" style="ellipse;whiteSpace=wrap;html=1;verticalAlign=middle;" vertex="1" parent="1">
          <mxGeometry x="475" y="292.5" width="255" height="60" as="geometry" />
        </mxCell>
        <mxCell id="UkzVXQFpZRV-EjQfRtY4-17" value="&lt;div&gt;&lt;span style=&quot;background-color: initial;&quot;&gt;Dodavanje, uklanjanje i prikaz liste za Citanje&lt;/span&gt;&lt;br&gt;&lt;/div&gt;" style="ellipse;whiteSpace=wrap;html=1;verticalAlign=middle;" vertex="1" parent="1">
          <mxGeometry x="425" y="392.5" width="285" height="60" as="geometry" />
        </mxCell>
        <mxCell id="UkzVXQFpZRV-EjQfRtY4-19" value="" style="endArrow=block;endSize=16;endFill=0;html=1;rounded=0;" edge="1" parent="1">
          <mxGeometry width="160" relative="1" as="geometry">
            <mxPoint x="830" y="386.5" as="sourcePoint" />
            <mxPoint x="830" y="246.5" as="targetPoint" />
          </mxGeometry>
        </mxCell>
        <mxCell id="UkzVXQFpZRV-EjQfRtY4-22" value="" style="edgeStyle=orthogonalEdgeStyle;rounded=0;orthogonalLoop=1;jettySize=auto;html=1;" edge="1" parent="1" source="UkzVXQFpZRV-EjQfRtY4-20">
          <mxGeometry relative="1" as="geometry">
            <mxPoint x="850" y="631.5" as="sourcePoint" />
            <mxPoint x="992.6799738316001" y="591.5" as="targetPoint" />
            <Array as="points">
              <mxPoint x="850" y="643" />
              <mxPoint x="850" y="592" />
            </Array>
          </mxGeometry>
        </mxCell>
        <mxCell id="UkzVXQFpZRV-EjQfRtY4-26" value="" style="edgeStyle=orthogonalEdgeStyle;rounded=0;orthogonalLoop=1;jettySize=auto;html=1;" edge="1" parent="1" source="UkzVXQFpZRV-EjQfRtY4-20" target="UkzVXQFpZRV-EjQfRtY4-25">
          <mxGeometry relative="1" as="geometry">
            <Array as="points">
              <mxPoint x="1045" y="642.5" />
            </Array>
          </mxGeometry>
        </mxCell>
        <mxCell id="UkzVXQFpZRV-EjQfRtY4-28" value="" style="edgeStyle=orthogonalEdgeStyle;rounded=0;orthogonalLoop=1;jettySize=auto;html=1;" edge="1" parent="1" source="UkzVXQFpZRV-EjQfRtY4-20" target="UkzVXQFpZRV-EjQfRtY4-27">
          <mxGeometry relative="1" as="geometry">
            <Array as="points">
              <mxPoint x="645" y="642.5" />
            </Array>
          </mxGeometry>
        </mxCell>
        <mxCell id="UkzVXQFpZRV-EjQfRtY4-20" value="Administrator" style="shape=umlActor;verticalLabelPosition=bottom;verticalAlign=top;html=1;outlineConnect=0;" vertex="1" parent="1">
          <mxGeometry x="815" y="612.5" width="30" height="60" as="geometry" />
        </mxCell>
        <mxCell id="UkzVXQFpZRV-EjQfRtY4-21" value="&lt;span style=&quot;background-color: initial;&quot;&gt;Kreiranje i brisanje čitalaca&lt;/span&gt;" style="ellipse;whiteSpace=wrap;html=1;verticalAlign=middle;" vertex="1" parent="1">
          <mxGeometry x="970" y="542.5" width="210" height="49" as="geometry" />
        </mxCell>
        <mxCell id="UkzVXQFpZRV-EjQfRtY4-25" value="&lt;div&gt;&lt;br&gt;&lt;/div&gt;&lt;span style=&quot;background-color: initial;&quot;&gt;Prikaz liste čitalaca&lt;/span&gt;" style="ellipse;whiteSpace=wrap;html=1;verticalAlign=top;" vertex="1" parent="1">
          <mxGeometry x="1025" y="613.5" width="175" height="60" as="geometry" />
        </mxCell>
        <mxCell id="UkzVXQFpZRV-EjQfRtY4-27" value="&lt;div&gt;Dodavanje i uklanjanje knjiga&lt;br&gt;&lt;/div&gt;" style="ellipse;whiteSpace=wrap;html=1;verticalAlign=middle;" vertex="1" parent="1">
          <mxGeometry x="435" y="612.5" width="250" height="70" as="geometry" />
        </mxCell>
        <mxCell id="UkzVXQFpZRV-EjQfRtY4-29" value="" style="endArrow=block;endSize=16;endFill=0;html=1;rounded=0;entryX=0.5;entryY=0.5;entryDx=0;entryDy=0;entryPerimeter=0;" edge="1" parent="1">
          <mxGeometry width="160" relative="1" as="geometry">
            <mxPoint x="830" y="602.5" as="sourcePoint" />
            <mxPoint x="830" y="472.5" as="targetPoint" />
          </mxGeometry>
        </mxCell>
      </root>
    </mxGraphModel>
  </diagram>
</mxfile>
